Plot:
A group of family and friends on a camping trip through the Texas badlands are taken on a on-way ride...

..................................................
Genre: Horror
Language: English
IMDB:http://www.imdb.com/title/tt1654833/
..................................................
General
Complete name : Hard.Ride.To.Hell.2010.DVDRip.H264.AAC.FEEL-FREE.mp4
Format : MPEG-4
Format profile : Base Media
Codec ID : isom
File size : 1.04 GiB
Duration : 1h 34mn
Overall bit rate : 1 588 Kbps
...................................................
Video
ID : 2
Format : AVC
Format/Info : Advanced Video Codec
Format profile : Baseline@L1.3
Format settings, CABAC : No
Format settings, ReFrames : 1 frame
Codec ID : avc1
Codec ID/Info : Advanced Video Coding
Duration : 1h 34mn
Bit rate mode : Variable
Bit rate : 1 502 Kbps
Width : 700 pixels
Height : 360 pixels
Display aspect ratio : 1.944
Frame rate mode : Constant
Frame rate : 23.976 fps
Resolution : 24 bits
Colorimetry : 4:2:0
Scan type : Progressive
Bits/(Pixel*Frame) : 0.249
Stream size : 1 011 MiB (95%)
Language : English
.....................................................
Audio
ID : 1
Format : AAC
Format/Info : Advanced Audio Codec
Format version : Version 4
Format profile : LC
Format settings, SBR : No
Codec ID : 40
Duration : 1h 34mn
Bit rate mode : Constant
Bit rate : 81.4 Kbps
Channel(s) : 6 channels
Channel positions : Front: L C R, Rear: L R, LFE
Sampling rate : 44.1 KHz
Resolution : 16 bits
Stream size : 54.8 MiB (5%)
Language : English
.....................................................
